# xmcd
#
# Track frame offsets: 
#        150
#        15512
#        27415
#        41157
#        56937
#        72187
#        86897
#        100835
#        117412
#        133500
#        148247
#
# Disc length: 2182 seconds
#
# Revision: 6
# Processed by: cddbd v1.5.2PL0 Copyright (c) Steve Scherf et al.
# Submitted via: ExactAudioCopy v1.0b3
#
DISCID=a208840b
DTITLE=Blake Shelton - Blake Shelton's Barn and Grill
DYEAR=2004
DGENRE=Country
TTITLE0=Some Beach
TTITLE1=Nobody But Me
TTITLE2=Good Old Boy, Bad Old Boyfriend
TTITLE3=Love Gets In The Way
TTITLE4=Goodbye Time
TTITLE5=Cotton Pickin' Time
TTITLE6=What's On My Mind
TTITLE7=When Somebody Knows You That Well
TTITLE8=On A Good Day
TTITLE9=The Bartender
TTITLE10=I Drink
EXTD=Goodbye Time
EXTT0=
EXTT1=
EXTT2=
EXTT3=
EXTT4=
EXTT5=
EXTT6=
EXTT7=
EXTT8=
EXTT9=
EXTT10=
PLAYORDER=
